<svg xmlns="http://www.w3.org/2000/svg" version="1.1" xmlns:xlink="http://www.w3.org/1999/xlink" xmlns:svgjs="http://svgjs.dev/svgjs" viewBox="0 0 11.160282324420793 11.451885377184617"><g transform="matrix(1,0,0,1,0.9420796387728965,7.77941023059922)"><g><path d=" M 0.888427734375 0 L 1.314697265625 0 Q 1.390869140625 0 1.4608154296875 0.019775390625 Q 1.53076171875 0.03955078125 1.5911865234375 0.075439453125 Q 1.651611328125 0.111328125 1.7010498046875 0.1614990234375 Q 1.75048828125 0.211669921875 1.78564453125 0.273193359375 Q 1.82080078125 0.334716796875 1.83984375 0.40576171875 Q 1.85888671875 0.476806640625 1.85888671875 0.5537109375 Q 1.85888671875 0.630615234375 1.83984375 0.70166015625 Q 1.82080078125 0.772705078125 1.78564453125 0.8345947265625 Q 1.75048828125 0.896484375 1.7010498046875 0.9473876953125 Q 1.651611328125 0.998291015625 1.5911865234375 1.0345458984375 Q 1.53076171875 1.07080078125 1.4608154296875 1.090576171875 Q 1.390869140625 1.1103515625 1.314697265625 1.1103515625 L 0.888427734375 1.1103515625 L 0.888427734375 0.90966796875 L 0.97705078125 0.90966796875 L 0.97705078125 0.201416015625 L 0.888427734375 0.201416015625 L 0.888427734375 0 Z M 1.22021484375 0.201416015625 L 1.22021484375 0.90966796875 L 1.313232421875 0.90966796875 Q 1.37255859375 0.90966796875 1.42529296875 0.8818359375 Q 1.47802734375 0.85400390625 1.516845703125 0.8060302734375 Q 1.5556640625 0.758056640625 1.578369140625 0.6932373046875 Q 1.60107421875 0.62841796875 1.60107421875 0.5537109375 Q 1.60107421875 0.479736328125 1.578369140625 0.415283203125 Q 1.5556640625 0.350830078125 1.516845703125 0.30322265625 Q 1.47802734375 0.255615234375 1.42529296875 0.228515625 Q 1.37255859375 0.201416015625 1.313232421875 0.201416015625 L 1.22021484375 0.201416015625 Z M 2.5751953125 0.90966796875 L 2.685791015625 0.90966796875 L 2.635986328125 0.75 L 2.294677734375 0.75 L 2.244873046875 0.90966796875 L 2.362060546875 0.90966796875 L 2.362060546875 1.1103515625 L 1.94091796875 1.1103515625 L 1.94091796875 0.90966796875 L 2.023681640625 0.90966796875 L 2.326171875 0 L 2.619873046875 0 L 2.915771484375 0.90966796875 L 2.996337890625 0.90966796875 L 2.996337890625 1.1103515625 L 2.5751953125 1.1103515625 L 2.5751953125 0.90966796875 Z M 2.3525390625 0.5625 L 2.57666015625 0.5625 L 2.4638671875 0.201416015625 L 2.3525390625 0.5625 Z M 3.113525390625 0 L 3.700927734375 0 Q 3.78662109375 0 3.85400390625 0.025634765625 Q 3.92138671875 0.05126953125 3.967529296875 0.0941162109375 Q 4.013671875 0.136962890625 4.0382080078125 0.1937255859375 Q 4.062744140625 0.25048828125 4.062744140625 0.31201171875 Q 4.062744140625 0.368408203125 4.0506591796875 0.410888671875 Q 4.03857421875 0.453369140625 4.0155029296875 0.486328125 Q 3.992431640625 0.519287109375 3.958740234375 0.5445556640625 Q 3.925048828125 0.56982421875 3.8818359375 0.59033203125 Q 3.919189453125 0.609375 3.94775390625 0.6485595703125 Q 3.976318359375 0.687744140625 3.990966796875 0.75 L 4.0283203125 0.894287109375 L 4.119873046875 0.894287109375 L 4.121337890625 1.1103515625 L 3.799072265625 1.1103515625 L 3.755126953125 0.8466796875 Q 3.74853515625 0.7998046875 3.7349853515625 0.7657470703125 Q 3.721435546875 0.731689453125 3.69873046875 0.7100830078125 Q 3.676025390625 0.6884765625 3.6434326171875 0.67822265625 Q 3.61083984375 0.66796875 3.566162109375 0.66796875 L 3.4716796875 0.66796875 L 3.4716796875 0.90966796875 L 3.573486328125 0.90966796875 L 3.573486328125 1.1103515625 L 3.113525390625 1.1103515625 L 3.113525390625 0.90966796875 L 3.228515625 0.90966796875 L 3.228515625 0.201416015625 L 3.113525390625 0.201416015625 L 3.113525390625 0 Z M 3.4716796875 0.201416015625 L 3.4716796875 0.47021484375 L 3.617431640625 0.47021484375 Q 3.6591796875 0.47021484375 3.6925048828125 0.4625244140625 Q 3.725830078125 0.454833984375 3.7496337890625 0.4383544921875 Q 3.7734375 0.421875 3.7862548828125 0.39697265625 Q 3.799072265625 0.3720703125 3.799072265625 0.337646484375 Q 3.799072265625 0.273193359375 3.7529296875 0.2373046875 Q 3.706787109375 0.201416015625 3.617431640625 0.201416015625 L 3.4716796875 0.201416015625 Z M 4.953369140625 0 L 5.375244140625 0 L 5.375244140625 0.201416015625 L 5.28515625 0.201416015625 L 5.28515625 1.1103515625 L 5.0419921875 1.1103515625 L 4.579833984375 0.392578125 L 4.579833984375 0.90966796875 L 4.6728515625 0.90966796875 L 4.6728515625 1.1103515625 L 4.251708984375 1.1103515625 L 4.251708984375 0.90966796875 L 4.34326171875 0.90966796875 L 4.34326171875 0.201416015625 L 4.253173828125 0.201416015625 L 4.253173828125 0 L 4.588623046875 0 L 5.0478515625 0.727294921875 L 5.0478515625 0.201416015625 L 4.953369140625 0.201416015625 L 4.953369140625 0 Z M 5.512939453125 0 L 6.396240234375 0 L 6.396240234375 0.378662109375 L 6.157470703125 0.378662109375 L 6.157470703125 0.22119140625 L 5.87255859375 0.22119140625 L 5.87255859375 0.440185546875 L 6.093017578125 0.440185546875 L 6.093017578125 0.652587890625 L 5.87255859375 0.652587890625 L 5.87255859375 0.90966796875 L 6.157470703125 0.90966796875 L 6.157470703125 0.712646484375 L 6.396240234375 0.712646484375 L 6.396240234375 1.1103515625 L 5.512939453125 1.1103515625 L 5.512939453125 0.90966796875 L 5.62939453125 0.90966796875 L 5.62939453125 0.22119140625 L 5.512939453125 0.22119140625 L 5.512939453125 0 Z M 6.541259765625 0 L 7.0166015625 0 L 7.0166015625 0.201416015625 L 6.8994140625 0.201416015625 L 6.8994140625 0.90966796875 L 7.14111328125 0.90966796875 Q 7.150634765625 0.90966796875 7.1597900390625 0.9041748046875 Q 7.1689453125 0.898681640625 7.1759033203125 0.889892578125 Q 7.182861328125 0.881103515625 7.187255859375 0.870849609375 Q 7.191650390625 0.860595703125 7.191650390625 0.85107421875 L 7.191650390625 0.702392578125 L 7.428955078125 0.702392578125 L 7.428955078125 1.1103515625 L 6.541259765625 1.1103515625 L 6.541259765625 0.90966796875 L 6.65625 0.90966796875 L 6.65625 0.201416015625 L 6.541259765625 0.201416015625 L 6.541259765625 0 Z M 7.544677734375 0 L 8.02001953125 0 L 8.02001953125 0.201416015625 L 7.90283203125 0.201416015625 L 7.90283203125 0.90966796875 L 8.14453125 0.90966796875 Q 8.154052734375 0.90966796875 8.1632080078125 0.9041748046875 Q 8.17236328125 0.898681640625 8.1793212890625 0.889892578125 Q 8.186279296875 0.881103515625 8.190673828125 0.870849609375 Q 8.195068359375 0.860595703125 8.195068359375 0.85107421875 L 8.195068359375 0.702392578125 L 8.432373046875 0.702392578125 L 8.432373046875 1.1103515625 L 7.544677734375 1.1103515625 L 7.544677734375 0.90966796875 L 7.65966796875 0.90966796875 L 7.65966796875 0.201416015625 L 7.544677734375 0.201416015625 L 7.544677734375 0 Z" fill="url(#gradient-d5010dd5-e81d-4640-9093-01dd417298c0)" fill-rule="nonzero"></path></g><g><path d=" M 0.104736328125 1.5980712890625002 L 0.56689453125 1.5980712890625002 Q 0.640869140625 1.5980712890625002 0.7034912109375 1.6174804687500002 Q 0.76611328125 1.6368896484375002 0.8118896484375 1.6746093750000002 Q 0.857666015625 1.7123291015625002 0.88330078125 1.7687255859375002 Q 0.908935546875 1.8251220703125002 0.908935546875 1.8983642578125002 Q 0.908935546875 1.9401123046875002 0.8939208984375 1.9807617187500002 Q 0.87890625 2.0214111328125 0.8521728515625 2.056201171875 Q 0.825439453125 2.0909912109375 0.788818359375 2.1180908203125 Q 0.752197265625 2.1451904296875 0.708984375 2.1598388671875 Q 0.727294921875 2.1678955078125 0.7459716796875 2.18291015625 Q 0.7646484375 2.1979248046875 0.7811279296875 2.21953125 Q 0.797607421875 2.2411376953125 0.8111572265625 2.268603515625 Q 0.82470703125 2.2960693359375 0.832763671875 2.3275634765625 L 0.894287109375 2.5692626953125 L 0.990234375 2.5692626953125 L 0.99169921875 2.7084228515625 L 0.775634765625 2.7084228515625 L 0.69287109375 2.3707763671875 Q 0.670166015625 2.2799560546875 0.6236572265625 2.237109375 Q 0.5771484375 2.1942626953125 0.49658203125 2.1942626953125 L 0.353759765625 2.1942626953125 L 0.353759765625 2.5824462890625 L 0.465087890625 2.5824462890625 L 0.465087890625 2.7084228515625 L 0.104736328125 2.7084228515625 L 0.104736328125 2.5824462890625 L 0.210205078125 2.5824462890625 L 0.210205078125 1.7247802734375002 L 0.104736328125 1.7247802734375002 L 0.104736328125 1.5980712890625002 Z M 0.353759765625 1.7247802734375002 L 0.353759765625 2.0741455078125 L 0.56689453125 2.0741455078125 Q 0.608642578125 2.0741455078125 0.6434326171875 2.0631591796875 Q 0.67822265625 2.0521728515625 0.7034912109375 2.0302001953125 Q 0.728759765625 2.0082275390625 0.7430419921875 1.9756347656250002 Q 0.75732421875 1.9430419921875002 0.75732421875 1.8998291015625002 Q 0.75732421875 1.8170654296875002 0.70751953125 1.7709228515625002 Q 0.65771484375 1.7247802734375002 0.54931640625 1.7247802734375002 L 0.353759765625 1.7247802734375002 Z M 1.1901855468750002 1.5980712890625002 L 1.5446777343750002 1.5980712890625002 L 1.5446777343750002 1.7247802734375002 L 1.4392089843750002 1.7247802734375002 L 1.4392089843750002 2.5824462890625 L 1.5446777343750002 2.5824462890625 L 1.5446777343750002 2.7084228515625 L 1.1901855468750002 2.7084228515625 L 1.1901855468750002 2.5824462890625 L 1.2956542968750002 2.5824462890625 L 1.2956542968750002 1.7247802734375002 L 1.1901855468750002 1.7247802734375002 L 1.1901855468750002 1.5980712890625002 Z M 2.559814453125 1.8910400390625002 Q 2.5107421875 1.8075439453125002 2.4298095703125 1.7599365234375002 Q 2.348876953125 1.7123291015625002 2.249267578125 1.7123291015625002 Q 2.164306640625 1.7123291015625002 2.093994140625 1.7482177734375002 Q 2.023681640625 1.7841064453125002 1.9735107421875002 1.8445312500000002 Q 1.9233398437500002 1.9049560546875002 1.8955078125000002 1.9844238281250002 Q 1.8676757812500002 2.0638916015625 1.8676757812500002 2.1517822265625 Q 1.8676757812500002 2.2557861328125 1.8984375000000002 2.335986328125 Q 1.9291992187500002 2.4161865234375 1.9786376953125002 2.469287109375 Q 2.028076171875 2.5223876953125 2.09619140625 2.55791015625 Q 2.164306640625 2.5934326171875 2.249267578125 2.5934326171875 Q 2.364990234375 2.5934326171875 2.45068359375 2.53740234375 Q 2.536376953125 2.4813720703125 2.59716796875 2.3531982421875 L 2.72607421875 2.4139892578125 Q 2.6982421875 2.4930908203125 2.631591796875 2.56669921875 Q 2.56494140625 2.6403076171875 2.4671630859375 2.6853515625 Q 2.369384765625 2.7303955078125 2.250732421875 2.7303955078125 Q 2.13720703125 2.7303955078125 2.0419921875 2.687548828125 Q 1.9467773437500002 2.6447021484375 1.8724365234375002 2.5656005859375 Q 1.7980957031250002 2.4864990234375 1.7589111328125002 2.3781005859375 Q 1.7197265625000002 2.2697021484375 1.7197265625000002 2.1517822265625 Q 1.7197265625000002 2.0331298828125 1.7589111328125002 1.9276611328125002 Q 1.7980957031250002 1.8221923828125002 1.8687744140625002 1.7441894531250002 Q 1.9394531250000002 1.6661865234375002 2.0372314453125 1.6211425781250002 Q 2.135009765625 1.5760986328125002 2.249267578125 1.5760986328125002 Q 2.35107421875 1.5760986328125002 2.425048828125 1.6050292968750002 Q 2.4990234375 1.6339599609375002 2.5506591796875 1.6738769531250002 Q 2.602294921875 1.7137939453125002 2.6396484375 1.7606689453125002 L 2.71728515625 1.7606689453125002 L 2.71728515625 1.8910400390625002 L 2.559814453125 1.8910400390625002 Z M 3.674560546875 1.5980712890625002 L 4.034912109375 1.5980712890625002 L 4.034912109375 1.7240478515625002 L 3.929443359375 1.7240478515625002 L 3.929443359375 2.5824462890625 L 4.034912109375 2.5824462890625 L 4.034912109375 2.7084228515625 L 3.674560546875 2.7084228515625 L 3.674560546875 2.5824462890625 L 3.785888671875 2.5824462890625 L 3.785888671875 2.1832763671875 L 3.1435546875 2.1832763671875 L 3.1435546875 2.5824462890625 L 3.2548828125 2.5824462890625 L 3.2548828125 2.7084228515625 L 2.89453125 2.7084228515625 L 2.89453125 2.5824462890625 L 3 2.5824462890625 L 3 1.7240478515625002 L 2.89453125 1.7240478515625002 L 2.89453125 1.5980712890625002 L 3.2548828125 1.5980712890625002 L 3.2548828125 1.7240478515625002 L 3.1435546875 1.7240478515625002 L 3.1435546875 2.0602294921875 L 3.785888671875 2.0602294921875 L 3.785888671875 1.7240478515625002 L 3.674560546875 1.7240478515625002 L 3.674560546875 1.5980712890625002 Z M 4.261962890625 2.5824462890625 L 4.367431640625 2.5824462890625 L 4.367431640625 1.7379638671875002 L 4.261962890625 1.7379638671875002 L 4.261962890625 1.5980712890625002 L 4.613525390625 1.5980712890625002 L 4.9658203125 2.5568115234375 L 5.322509765625 1.5980712890625002 L 5.65576171875 1.5980712890625002 L 5.65576171875 1.7379638671875002 L 5.551025390625 1.7379638671875002 L 5.551025390625 2.5824462890625 L 5.65576171875 2.5824462890625 L 5.65576171875 2.7084228515625 L 5.29541015625 2.7084228515625 L 5.29541015625 2.5824462890625 L 5.4140625 2.5824462890625 L 5.4140625 1.7299072265625002 L 5.02587890625 2.7084228515625 L 4.9013671875 2.7084228515625 L 4.508056640625 1.7277099609375002 L 4.508056640625 2.5824462890625 L 4.622314453125 2.5824462890625 L 4.622314453125 2.7084228515625 L 4.261962890625 2.7084228515625 L 4.261962890625 2.5824462890625 Z M 6.36328125 2.7303955078125 Q 6.248291015625 2.7303955078125 6.153076171875 2.687548828125 Q 6.057861328125 2.6447021484375 5.983154296875 2.5656005859375 Q 5.908447265625 2.4864990234375 5.86962890625 2.3781005859375 Q 5.830810546875 2.2697021484375 5.830810546875 2.1532470703125 Q 5.830810546875 2.0331298828125 5.8699951171875 1.9276611328125002 Q 5.9091796875 1.8221923828125002 5.9798583984375 1.7441894531250002 Q 6.050537109375 1.6661865234375002 6.1483154296875 1.6211425781250002 Q 6.24609375 1.5760986328125002 6.36328125 1.5760986328125002 Q 6.481201171875 1.5760986328125002 6.579345703125 1.6211425781250002 Q 6.677490234375 1.6661865234375002 6.747802734375 1.7441894531250002 Q 6.818115234375 1.8221923828125002 6.85693359375 1.9276611328125002 Q 6.895751953125 2.0331298828125 6.895751953125 2.1532470703125 Q 6.895751953125 2.2733642578125 6.8565673828125 2.378466796875 Q 6.8173828125 2.4835693359375 6.7467041015625 2.5619384765625 Q 6.676025390625 2.6403076171875 6.5782470703125 2.6853515625 Q 6.48046875 2.7303955078125 6.36328125 2.7303955078125 Z M 6.36328125 2.5941650390625 Q 6.450439453125 2.5941650390625 6.5211181640625 2.5582763671875 Q 6.591796875 2.5223876953125 6.6416015625 2.461962890625 Q 6.69140625 2.4015380859375 6.718505859375 2.3217041015625 Q 6.74560546875 2.2418701171875 6.74560546875 2.1532470703125 Q 6.74560546875 2.0624267578125 6.7159423828125 1.9778320312500002 Q 6.686279296875 1.8932373046875002 6.6331787109375 1.8346435546875002 Q 6.580078125 1.7760498046875002 6.509765625 1.7441894531250002 Q 6.439453125 1.7123291015625002 6.36328125 1.7123291015625002 Q 6.276123046875 1.7123291015625002 6.205078125 1.7482177734375002 Q 6.134033203125 1.7841064453125002 6.084228515625 1.8445312500000002 Q 6.034423828125 1.9049560546875002 6.00732421875 1.9851562500000002 Q 5.980224609375 2.0653564453125 5.980224609375 2.1532470703125 Q 5.980224609375 2.2557861328125 6.01025390625 2.335986328125 Q 6.040283203125 2.4161865234375 6.0897216796875 2.469287109375 Q 6.13916015625 2.5223876953125 6.2076416015625 2.5582763671875 Q 6.276123046875 2.5941650390625 6.36328125 2.5941650390625 Z M 7.757080078125 1.5980712890625002 L 8.117431640625 1.5980712890625002 L 8.117431640625 1.7247802734375002 L 8.02294921875 1.7247802734375002 L 8.02294921875 2.7084228515625 L 7.83544921875 2.7084228515625 L 7.319091796875 1.7877685546875002 L 7.319091796875 2.5824462890625 L 7.433349609375 2.5824462890625 L 7.433349609375 2.7084228515625 L 7.072998046875 2.7084228515625 L 7.072998046875 2.5824462890625 L 7.175537109375 2.5824462890625 L 7.175537109375 1.7247802734375002 L 7.070068359375 1.7247802734375002 L 7.070068359375 1.5966064453125002 L 7.368896484375 1.5966064453125002 L 7.875732421875 2.5084716796875 L 7.881591796875 2.4733154296875 L 7.881591796875 1.7247802734375002 L 7.757080078125 1.7247802734375002 L 7.757080078125 1.5980712890625002 Z M 8.277099609375 1.5980712890625002 L 8.690185546875 1.5980712890625002 Q 8.766357421875 1.5980712890625002 8.835205078125 1.6178466796875002 Q 8.904052734375 1.6376220703125002 8.96337890625 1.6735107421875002 Q 9.022705078125 1.7093994140625002 9.071044921875 1.7595703125000002 Q 9.119384765625 1.8097412109375002 9.1534423828125 1.8712646484375002 Q 9.1875 1.9327880859375002 9.205810546875 2.003466796875 Q 9.22412109375 2.0741455078125 9.22412109375 2.1503173828125 Q 9.22412109375 2.2279541015625 9.205810546875 2.2989990234375 Q 9.1875 2.3700439453125 9.1534423828125 2.4322998046875 Q 9.119384765625 2.4945556640625 9.071044921875 2.545458984375 Q 9.022705078125 2.5963623046875 8.96337890625 2.6326171875 Q 8.904052734375 2.6688720703125 8.835205078125 2.6886474609375 Q 8.766357421875 2.7084228515625 8.690185546875 2.7084228515625 L 8.277099609375 2.7084228515625 L 8.277099609375 2.5824462890625 L 8.382568359375 2.5824462890625 L 8.382568359375 1.7247802734375002 L 8.277099609375 1.7247802734375002 L 8.277099609375 1.5980712890625002 Z M 8.526123046875 1.7247802734375002 L 8.526123046875 2.5824462890625 L 8.698974609375 2.5824462890625 Q 8.77587890625 2.5824462890625 8.8436279296875 2.5487548828125 Q 8.911376953125 2.5150634765625 8.9619140625 2.4568359375 Q 9.012451171875 2.3986083984375 9.041748046875 2.319873046875 Q 9.071044921875 2.2411376953125 9.071044921875 2.1503173828125 Q 9.071044921875 2.0609619140625 9.041748046875 1.9833251953125002 Q 9.012451171875 1.9056884765625002 8.9619140625 1.8481933593750002 Q 8.911376953125 1.7906982421875002 8.8436279296875 1.7577392578125002 Q 8.77587890625 1.7247802734375002 8.698974609375 1.7247802734375002 L 8.526123046875 1.7247802734375002 Z" fill="url(#gradient-52b936f8-a1b8-4604-a2b4-77f584601093)" fill-rule="nonzero"></path></g><g clip-path="url(&quot;#SvgjsClipPath1002&quot;)"><g clip-path="url(&quot;#b&quot;)"><path d=" M 5.417288904231739 -2.4977805499711963 L 3.8733137538304345 -2.4977805499711963 L 3.8733137538304345 -1.883859127714059 L 5.417288904231739 -1.883859127714059 Z M 6.602456236131102 -2.591575079210413 L 6.602456236131102 -5.121972273813009 C 6.602456242696416 -5.134765879603472 6.592091852170993 -5.145140781679353 6.579298252948959 -5.145153743791504 L 2.7113161485103854 -5.145153743791504 C 2.6985206473081784 -5.145140787952155 2.688152894110088 -5.13476777993744 2.688146421931072 -5.121972273813009 L 2.688146421931072 -2.591575079210413 C 2.688146421931072 -2.5787865175049536 2.698515843405747 -2.568417096030279 2.7113161485103854 -2.568417096030279 L 6.579298252950968 -2.568417096030279 C 6.592086814656428 -2.568417096030279 6.602456236131102 -2.5787865175049536 6.602456236131102 -2.591575079210413 M 4.6380673951370905 -6.8373305918263245 C 2.815832401199634 -6.837142697439467 1.3388650865112328 -5.360175382751067 1.3387711393178043 -3.5380460794062176 C 1.3387711393178043 -2.368708849599564 1.9474667489404798 -1.3406329685118958 2.864861092770152 -0.7551775458636047 L 2.8762169597758267 -0.7729453088207778 L 2.8052633419389235 -0.6570027287307827 C 2.794330179827142 -0.6391419117880339 2.790942072269916 -0.617668713028344 2.795844724223702 -0.5973092724799169 C 2.8007473761774877 -0.5769498319314907 2.8135389723330158 -0.559372784238934 2.831404148510414 -0.5484467467241076 L 3.1007155218724964 -0.3836751128496303 C 3.137900627538 -0.36093318344912806 3.1864799342156873 -0.37262333472062537 3.2092480170808146 -0.40979243262276377 L 3.213851429558813 -0.41734343829458265 L 3.3280442431712007 -0.3481395869352859 L 3.613220948823527 -0.8156090780365117 L 3.4996505353676035 -0.8844253972229161 L 3.507917888389315 -0.8979537930766259 C 3.518847736102982 -0.915808789551285 3.522232779631982 -0.9372758639853824 3.5173276079084483 -0.9576278113250529 C 3.5124224361849157 -0.9779797586647225 3.4996292992621614 -0.9955476114682957 3.4817653384186458 -1.0064628014865864 L 3.212465708455742 -1.1712461787602413 C 3.1946151860406435 -1.1821844148006448 3.1731481537503274 -1.1855766890877977 3.152794653321219 -1.1806755485623892 C 3.1324411528921097 -1.1757744080369816 3.1148713962053343 -1.1629820411660603 3.1039567000457806 -1.1451171155879294 L 3.044088851033445 -1.0472711136321067 C 2.224211693982595 -1.5734458572269912 1.6811969159656461 -2.4917561861925916 1.6811969159656461 -3.5380460794062176 C 1.6813143499574317 -4.355093077255033 2.011891036834099 -5.093165715627984 2.5472373751874438 -5.628782152162435 C 3.0828655551210735 -6.164140233914958 3.820985167090739 -6.494728664190804 4.63806739513709 -6.494799124585875 C 5.455055675990012 -6.494728664190804 6.193187031358855 -6.164140233914958 6.728791724494128 -5.628782152162435 C 7.264149806246651 -5.0931657156279835 7.594749979921676 -4.355093077255033 7.594820440316747 -3.5380460794062176 C 7.595172742292103 -1.9925208003133408 6.408690149684743 -0.7237756964601152 4.897784411370282 -0.5924492634461984 C 4.898148456744818 -0.5924492634461984 4.897537799987532 -0.5925197238412698 4.897537799987532 -0.5925197238412698 C 4.889728439533785 -0.5914041009193065 4.854498241998083 -0.6001764201056963 4.838632909707838 -0.6145973142969758 C 4.822297841450451 -0.630497876784756 4.811587861399598 -0.6372620747116109 4.809227438164706 -0.6887333933112707 L 4.809227438164706 -1.6437183579115375 L 6.112063629833312 -1.6437183579115375 L 6.112063629833312 -1.8212785534914735 L 3.1785507716280397 -1.8212785534914735 L 3.1785507716280397 -1.6437183579115366 L 4.4668016615168655 -1.6437183579115366 L 4.4668016615168655 -0.6887333933112707 C 4.464488211878688 -0.5409074844514672 4.536369558250698 -0.4138791355369058 4.626206561966738 -0.3459200844905368 C 4.716407611057312 -0.2764578783493121 4.810965461243136 -0.2511860833170356 4.897537799987533 -0.25 C 4.906051764391995 -0.2500704603950714 4.915740068714312 -0.2502583547819279 4.927166396115059 -0.2511860833170356 C 6.6145636806842045 -0.3980490334441962 7.937011348981018 -1.81336350244512 7.937351907557195 -3.5380460794062176 C 7.937199243367875 -5.360175382751067 6.460231928679473 -6.837248388032075 4.63806739513709 -6.8373305918263245" fill="#800000" transform="matrix(1,0,0,1,0,0)" fill-rule="nonzero"></path></g><g clip-path="url(&quot;#b&quot;)"><path d=" M 6.434513884478411 -2.840558628594396 L 2.8560770301845837 -2.840558628594396 L 2.8560770301845837 -5.006170614513158 L 6.434513884478411 -5.006170614513158 Z" fill="#ebebeb" transform="matrix(1,0,0,1,0,0)" fill-rule="nonzero"></path></g><g clip-path="url(&quot;#b&quot;)"><path d=" M 5.3175757018065255 -3.5167200664979403 L 5.203723446770317 -3.5167200664979403 L 5.203723446770317 -3.4028560680625524 L 4.1460894299501945 -3.4028560680625524 L 4.1460894299501945 -3.5167200664979403 L 4.0322254315148065 -3.5167200664979403 L 4.0322254315148065 -3.4028560680625524 L 3.7934586394161776 -3.4028560680625524 L 3.7934586394161776 -3.0502252775285355 L 4.1460894299501945 -3.0502252775285355 L 4.1460894299501945 -3.288992069627164 L 5.090070829520142 -3.288992069627164 L 5.090070829520142 -3.0502252775285355 L 5.4427016200541605 -3.0502252775285355 L 5.4427016200541605 -3.4028560680625524 L 5.3175757018065255 -3.4028560680625524 Z M 3.924268362866238 -4.446069190691395 L 3.924268362866238 -4.559710064542389 L 3.8044152308497807 -4.559710064542389 L 3.8044152308497807 -4.673350938393384 L 3.457292094530512 -4.673350938393384 L 3.457292094530512 -4.559486939957996 L 3.669366140296258 -4.559486939957996 L 3.669366140296258 -4.445846066107001 L 3.798966293630926 -4.445846066107001 L 3.798966293630926 -4.332205192256006 L 3.9164942326100265 -4.332205192256006 L 3.9164942326100265 -4.0971140841002684 L 4.038073644305733 -4.0971140841002684 L 4.038073644305733 -3.7425104025042524 L 4.1497651138930856 -3.7425104025042524 L 4.1497651138930856 -3.5185402933706182 L 4.2636291123284735 -3.5185402933706182 L 4.2636291123284735 -3.6308776499127924 L 5.090070829520142 -3.6308776499127924 L 5.090070829520142 -3.5185402933706182 L 5.20393482795553 -3.5185402933706182 L 5.20393482795553 -3.7425573761009665 L 5.315614554143705 -3.7425573761009665 L 5.315614554143705 -4.209193085860514 L 5.311574824826279 -4.209193085860514 L 5.311574824826279 -4.210649267358656 L 5.432156047591807 -4.210649267358656 L 5.432156047591807 -4.332205192256006 L 5.56022955903326 -4.332205192256006 L 5.56022955903326 -4.446069190691395 Z M 4.267281309473008 -3.7447416483481804 L 4.151937642741121 -3.7447416483481804 L 4.151937642741121 -3.862058206142067 L 4.267281309473008 -3.862058206142067 Z M 4.267281309473008 -3.975933947976633 L 4.151937642741121 -3.975933947976633 L 4.151937642741121 -4.097114084100269 L 4.267281309473008 -4.097114084100269 Z M 4.267281309473008 -4.210978082535656 L 4.043933600495839 -4.210978082535656 L 4.043933600495839 -4.332205192256006 L 4.267281309473008 -4.332205192256006 Z M 4.502372417628745 -3.7447416483481804 L 4.381157051307575 -3.7447416483481804 L 4.381157051307575 -3.862058206142067 L 4.502372417628745 -3.862058206142067 Z M 4.502372417628745 -3.975933947976633 L 4.381180538105932 -3.975933947976633 L 4.381180538105932 -4.097114084100269 L 4.502372417628745 -4.097114084100269 Z M 4.502372417628745 -4.210978082535656 L 4.381180538105932 -4.210978082535656 L 4.381180538105932 -4.332205192256006 L 4.502372417628745 -4.332205192256006 Z M 4.737451782385305 -3.7447416483481804 L 4.6162481594633125 -3.7447416483481804 L 4.6162481594633125 -3.862058206142067 L 4.737451782385305 -3.862058206142067 Z M 4.737451782385305 -3.975933947976633 L 4.616271646261669 -3.975933947976633 L 4.616271646261669 -4.0971140841002684 L 4.737451782385305 -4.0971140841002684 Z M 4.737451782385305 -4.210978082535656 L 4.616271646261669 -4.210978082535656 L 4.616271646261669 -4.332205192256006 L 4.737451782385305 -4.332205192256006 Z M 4.972531147141864 -3.7447416483481804 L 4.851315780820693 -3.7447416483481804 L 4.851315780820693 -3.862058206142067 L 4.972531147141864 -3.862058206142067 Z M 4.972531147141864 -3.975933947976633 L 4.8513275242198715 -3.975933947976633 L 4.8513275242198715 -4.0971140841002684 L 4.972531147141864 -4.0971140841002684 Z M 4.972531147141864 -4.210978082535656 L 4.8513275242198715 -4.210978082535656 L 4.8513275242198715 -4.332205192256006 L 4.972531147141864 -4.332205192256006 Z M 5.201750555708317 -3.7447416483481804 L 5.0864068889764305 -3.7447416483481804 L 5.0864068889764305 -3.862058206142067 L 5.201750555708317 -3.862058206142067 Z M 5.201750555708317 -3.975933947976633 L 5.0864068889764305 -3.975933947976633 L 5.0864068889764305 -4.0971140841002684 L 5.201750555708317 -4.0971140841002684 Z M 5.310611866093636 -4.210978082535656 L 5.086395145577251 -4.210978082535656 L 5.086395145577251 -4.332205192256006 L 5.310611866093636 -4.332205192256006 Z" fill="#bf9525" transform="matrix(1,0,0,1,0,0)" fill-rule="nonzero"></path></g></g></g><defs><linearGradient id="gradient-d5010dd5-e81d-4640-9093-01dd417298c0" x1="0" y1="0" x2="1" y2="1"><stop stop-color="#8c1627" offset="0"></stop><stop stop-color="#0e0904" offset="1"></stop></linearGradient><linearGradient id="gradient-52b936f8-a1b8-4604-a2b4-77f584601093" x1="0" y1="0" x2="1" y2="1"><stop stop-color="#e9ae3f" offset="0"></stop><stop stop-color="#bd2949" offset="1"></stop></linearGradient><clipPath id="SvgjsClipPath1002"><path d=" M 1.3387711393178043 -6.837330591826324 h 6.598580768239391 v 6.587330591826324 h -6.598580768239391 Z"></path></clipPath><clipPath id="b"><path d=" M 1.3270277401392372 -6.849073991004891 L 7.9490953067357655 -6.849073991004891 L 7.9490953067357655 -0.23824485742225399 L 1.3270277401392372 -0.23824485742225399 Z"></path></clipPath></defs></svg>